<mxfile host="app.diagrams.net" modified="2023-10-21T10:09:11.119Z" agent="Mozilla/5.0 (Macintosh; Intel Mac OS X 10_15_7) AppleWebKit/537.36 (KHTML, like Gecko) Chrome/116.0.0.0 Safari/537.36" version="22.0.6" etag="EU2H_M0-qJGgwwl6XPQT" type="github">
  <diagram name="Page-1" id="f31c993MnNktxt3acmLQ">
    <mxGraphModel>
      <root>
        <mxCell id="0" />
        <mxCell id="1" parent="0" />
      </root>
    </mxGraphModel>
  </diagram>
</mxfile>
